<?xml version="1.0" encoding="UTF-8"?>
<svg width="790px" height="23px" viewBox="0 0 790 23" version="1.1" xmlns="http://www.w3.org/2000/svg" xmlns:xlink="http://www.w3.org/1999/xlink">
    <title>2EC7E073-B591-4DBD-B679-2119AD4910C6</title>
    <defs>
        <polygon id="path-1" points="0 0 11.3413876 0 11.3413876 4.73970046 0 4.73970046"></polygon>
    </defs>
    <g id="Page-1" stroke="none" stroke-width="1" fill="none" fill-rule="evenodd">
        <g id="Cover-Letter-Writing-Service-Desktop-B" transform="translate(-460.000000, -691.000000)">
            <g id="Group-28" transform="translate(460.000000, 691.000000)">
                <g id="T-Mobile" transform="translate(0.000000, 3.000000)" fill="#303030">
                    <path d="M7.55736124,1.05745489 L7.55736124,13.4056807 C7.55736124,14.2987568 7.60286924,14.8498662 7.69388523,15.0575412 C7.85847248,15.5602176 8.38864064,15.8097211 9.28287277,15.8097211 L9.87826905,15.8097211 L9.87826905,16.6477596 L2.86927916,16.6477596 L2.86927916,15.8097211 L3.46543391,15.8097211 C4.11013053,15.8097211 4.55838429,15.6857032 4.81095367,15.4347319 C5.06352305,15.1837607 5.19094544,14.5064318 5.19094544,13.4056807 L5.19094544,1.05745489 L4.66912041,1.05745489 C3.84921802,1.05745489 3.11198848,1.28714495 2.45894873,1.74652508 C1.47445908,2.44440128 0.903333725,3.84529051 0.745572672,5.94552361 L0.0015169332,5.94552361 L0.138040922,0.22015022 L12.6921802,0.22015022 L12.7922977,5.94552361 L12.0330727,5.94552361 C11.7175506,3.5348787 10.9719779,2.03272037 9.79483772,1.43831477 C9.28818203,1.18514202 8.67154868,1.05745489 7.94190381,1.05745489 L7.55736124,1.05745489" id="Fill-2"></path>
                    <polygon id="Fill-3" points="0 10.8776224 3.55038217 10.8776224 3.55038217 7.44254511 0 7.44254511"></polygon>
                    <polygon id="Fill-4" points="9.24039864 10.8776224 12.7907808 10.8776224 12.7907808 7.44254511 9.24039864 7.44254511"></polygon>
                    <polygon id="Fill-5" points="19.8923036 10.8776224 23.4426858 10.8776224 23.4426858 7.44254511 19.8923036 7.44254511"></polygon>
                    <polygon id="Fill-6" points="30.5442086 10.8776224 34.0945908 10.8776224 34.0945908 7.44254511 30.5442086 7.44254511"></polygon>
                    <polygon id="Fill-7" points="104.147325 10.8776224 107.697707 10.8776224 107.697707 7.44254511 104.147325 7.44254511"></polygon>
                    <polygon id="Fill-8" points="114.797713 10.8776224 118.349612 10.8776224 118.349612 7.44254511 114.797713 7.44254511"></polygon>
                    <polygon id="Fill-9" points="125.449618 10.8776224 129 10.8776224 129 7.44254511 125.449618 7.44254511"></polygon>
                    <path d="M43.8879116,16.6477596 L43.105174,16.6477596 L38.6233949,1.70616421 L38.6233949,12.4494949 C38.6233949,13.5465769 38.6696613,14.2393162 38.7599189,14.5262454 C39.0253822,15.3833636 39.6116769,15.8097211 40.5180444,15.8097211 L40.8525282,15.8097211 L40.8525282,16.6477596 L35.5728422,16.6477596 L35.5728422,15.8097211 L35.9877234,15.8097211 C36.62256,15.8097211 37.0738476,15.5565484 37.3415863,15.0443322 C37.5585078,14.6282483 37.6669685,13.7652594 37.6669685,12.453898 L37.6669685,2.96762497 C37.6669685,2.4018389 37.6419391,2.02464819 37.5911218,1.84118967 C37.4910042,1.45739446 37.2702905,1.21449538 36.9274635,1.10882328 C36.7279868,1.04571355 36.4344603,1.01342485 36.0491592,1.01342485 L35.5728422,1.01342485 L35.5728422,0.22015022 L40.5005997,0.22015022 L44.1109008,12.2616334 L47.8137347,0.22015022 L52.8249236,0.22015022 L52.8249236,1.01342485 L52.485889,1.01342485 C51.826023,1.01342485 51.3679092,1.14037814 51.112306,1.39134939 C50.8582197,1.64232064 50.7315557,2.32111715 50.7315557,3.42406976 L50.7315557,13.4005439 C50.7315557,14.2884831 50.7763053,14.8403263 50.8695967,15.0553397 C51.0273577,15.5587499 51.565869,15.8097211 52.485889,15.8097211 L52.8249236,15.8097211 L52.8249236,16.6477596 L46.4075376,16.6477596 L46.4075376,15.8097211 L46.6312853,15.8097211 C47.2873589,15.8097211 47.7492651,15.6710265 48.0147284,15.3899681 C48.2475776,15.1433998 48.363623,14.4785461 48.363623,13.3976086 L48.363623,1.70322887 L43.8879116,16.6477596" id="Fill-10"></path>
                    <path d="M61.4547566,7.24294224 C61.8484008,8.08831909 62.0448436,9.33070016 62.0448436,10.9664163 C62.0448436,14.4315808 61.1445437,16.164163 59.343944,16.164163 C57.5327258,16.164163 56.6278751,14.4147026 56.6278751,10.9194509 C56.6278751,9.32116032 56.8250764,8.09785893 57.2187206,7.24294224 C57.6707667,6.26033843 58.3624882,5.77013727 59.2916098,5.77013727 C60.2814087,5.77013727 61.001952,6.26033843 61.4547566,7.24294224 Z M55.4416333,6.77915911 C54.5929092,7.89091772 54.1696849,9.29400846 54.1696849,10.9906328 C54.1696849,12.7129414 54.6027693,14.1079599 55.4666627,15.17789 C56.4466016,16.3931192 57.7382702,17 59.343944,17 C60.9374824,17 62.2268756,16.3931192 63.206056,15.17789 C64.0707079,14.1079599 64.5030339,12.7048692 64.5030339,10.9664163 C64.5030339,9.22135889 64.0707079,7.81826815 63.206056,6.75494259 C62.217774,5.54118104 60.9503763,4.9328326 59.4053798,4.9328326 C57.7018638,4.9328326 56.3813735,5.54851938 55.4416333,6.77915911 L55.4416333,6.77915911 Z" id="Fill-11"></path>
                    <path d="M74.3024224,10.874687 C74.3024224,14.3119658 73.4643168,16.0306052 71.7918979,16.0306052 C70.8271284,16.0306052 70.1141698,15.5506777 69.6530221,14.5893551 C69.2320731,13.7153587 69.0227364,12.497928 69.0227364,10.9341276 C69.0227364,9.35491669 69.2684795,8.14188898 69.7637582,7.29137529 C70.2825494,6.39463006 70.9795802,5.94552361 71.8533337,5.94552361 C73.4855539,5.94552361 74.3024224,7.58931192 74.3024224,10.874687 Z M69.2040099,0 L65.5610948,0.17685401 L65.5610948,0.968660969 L65.7514699,0.968660969 C66.2300623,0.968660969 66.5637876,1.06552707 66.748095,1.25779159 C66.9589487,1.47500648 67.0636171,2.03272037 67.0636171,2.93093326 L67.0636171,14.2150997 C67.0636171,15.3224553 67.0234184,15.9939135 66.9422625,16.2265389 C66.8975129,16.354226 66.8474541,16.4951222 66.7943615,16.6477596 L67.6392933,16.6477596 C68.1360889,15.8698955 68.4789158,15.4794958 68.6708079,15.4794958 C68.7936794,15.4794958 68.9400635,15.5426055 69.1061677,15.6666235 C69.5445614,16.0041872 69.826711,16.212596 69.9510995,16.2911163 C70.5806268,16.6763792 71.2715898,16.8679099 72.0255056,16.8679099 C73.5750529,16.8679099 74.7840487,16.1986532 75.6540099,14.8579384 C76.390481,13.7190279 76.7606127,12.3592334 76.7606127,10.7785548 C76.7606127,8.92929293 76.2509231,7.45722179 75.2330609,6.36454286 C74.4472895,5.52870586 73.4377705,5.10968661 72.2067792,5.10968661 C70.7588664,5.10968661 69.7576905,5.70776137 69.2040099,6.90537857 L69.2040099,0 L69.2040099,0 Z" id="Fill-12"></path>
                    <path d="M81.8969485,5.10968661 L81.8969485,13.8936804 C81.8969485,14.8036346 81.998583,15.3716222 82.2041275,15.5969093 C82.3838841,15.7994475 82.7062324,15.8992489 83.1749647,15.8992489 L83.5799859,15.8992489 L83.5799859,16.6477596 L78.0727599,16.6477596 L78.0727599,15.8992489 L78.477781,15.8992489 C78.9449965,15.8992489 79.2764464,15.792843 79.4690969,15.5792972 C79.6602305,15.3657515 79.7565557,14.8036346 79.7565557,13.8922127 L79.7565557,8.01640335 C79.7565557,7.10571527 79.6518873,6.54139687 79.4425506,6.32418199 C79.2597601,6.1304498 78.9290687,6.0335837 78.4527516,6.0335837 L78.1637759,6.0335837 L78.1637759,5.27700078 L81.8969485,5.10968661 Z M80.6697495,0.0895277562 C81.0406397,0.0895277562 81.3607126,0.223085556 81.6299683,0.490201157 C81.897707,0.758784425 82.0334725,1.07286541 82.0334725,1.43171027 C82.0334725,1.80743331 81.897707,2.12591729 81.6299683,2.38569455 C81.3607126,2.64620565 81.0322966,2.77462661 80.6447201,2.77462661 C80.2632114,2.77462661 79.9378293,2.64327031 79.6640228,2.37982388 C79.3924918,2.11490978 79.2552093,1.8008288 79.2552093,1.43171027 C79.2552093,1.05672106 79.3940087,0.738970906 79.6716075,0.478459812 C79.9476893,0.218682552 80.2814146,0.0895277562 80.6697495,0.0895277562 L80.6697495,0.0895277562 Z" id="Fill-13"></path>
                    <path d="M88.3105421,0 L88.3105421,13.8936804 C88.3105421,14.8036346 88.4121766,15.3716222 88.6154457,15.5969093 C88.7959607,15.7994475 89.119826,15.8992489 89.5870414,15.8992489 L89.992821,15.8992489 L89.992821,16.6477596 L84.4848365,16.6477596 L84.4848365,15.8992489 L84.8913746,15.8992489 C85.3578316,15.8992489 85.688523,15.792843 85.8811736,15.5792972 C86.0723071,15.3657515 86.1693909,14.8036346 86.1693909,13.8936804 L86.1693909,2.89497539 C86.1693909,2.00189934 86.065481,1.44125011 85.8561442,1.21596305 C85.6718368,1.02223086 85.3419038,0.925364759 84.8663452,0.925364759 L84.5773695,0.925364759 L84.5773695,0.167314167 L88.3105421,0" id="Fill-14"></path>
                    <path d="M93.6167745,10.0410515 C93.6251176,9.21768972 93.7115828,8.51247518 93.8792039,7.92467409 C94.2895343,6.48782699 94.9858067,5.77013727 95.9748471,5.77013727 C96.8425329,5.77013727 97.4697848,6.30363464 97.8550858,7.37356471 C98.1144814,8.10006043 98.2441792,8.98873349 98.2441792,10.0410515 L93.6167745,10.0410515 Z M99.8119297,7.48951049 C98.9321084,5.78628162 97.6176858,4.9328326 95.8671449,4.9328326 C94.6869708,4.9328326 93.6804857,5.38780972 92.8416216,6.29703013 C91.7790099,7.44768195 91.2488417,8.97919365 91.2488417,10.8952344 C91.2488417,12.9778555 91.7790099,14.5717431 92.8416216,15.6724942 C93.6971719,16.5567642 94.7923977,17 96.1280574,17 C97.9453434,17 99.3894638,15.9601571 100.45966,13.8790037 L99.6989182,13.4922732 C99.3750529,14.1424501 99.0504292,14.651731 98.7273224,15.0201157 C98.1372354,15.6937754 97.4007643,16.0306052 96.5201846,16.0306052 C95.3908278,16.0306052 94.5921625,15.4912372 94.127981,14.4139687 C93.7942556,13.6507813 93.6251176,12.47151 93.6167745,10.87909 L100.595426,10.87909 C100.546884,9.5361737 100.283696,8.40533541 99.8119297,7.48951049 L99.8119297,7.48951049 Z" id="Fill-15"></path>
                </g>
                <g id="Group-20" transform="translate(395.000000, 3.000000)">
                    <path d="M45.6912511,15.0192574 C46.1957366,14.264826 46.6398877,13.5728288 47.1226813,12.9063728 C47.2017442,12.7970563 47.4499568,12.7584606 47.6202917,12.7577795 C49.8807565,12.7481306 52.1411027,12.7523307 54.4013305,12.750855 C55.5425866,12.7501739 55.7935255,12.50827 55.7958962,11.4162403 C55.7963703,11.1588981 55.7976742,10.901556 55.7953035,10.6442138 C55.7872431,9.75197331 55.5366599,9.50609634 54.6152864,9.5045071 C52.7817851,9.50132864 50.9474541,9.53152406 49.1151382,9.48623093 C48.5487773,9.47226839 47.9526642,9.33536736 47.4327692,9.11752899 C46.6178402,8.77629807 46.1582795,8.08396029 45.957244,7.27072731 C45.7105724,6.27280282 45.699193,5.25410479 45.9374486,4.25436404 C46.2324825,3.01680599 47.2463134,2.17349112 48.5735512,2.04930395 C49.2320138,1.98777795 49.8990109,1.99788093 50.5622149,1.99606466 C52.9490381,1.98959422 55.3357428,1.99163751 57.722566,1.991524 C57.8310257,1.991524 57.9394853,2.00128643 58.1505964,2.0113894 C57.8035255,2.53935514 57.4449568,2.99489729 57.1882097,3.49800289 C56.8838115,4.09419211 56.449973,4.25640734 55.7718335,4.2410826 C53.7497429,4.1953354 51.7257557,4.22450917 49.7024797,4.22757412 C48.8166667,4.2288228 48.5736697,4.4605102 48.564661,5.30155474 C48.5613421,5.60430353 48.557786,5.90727935 48.5683356,6.20980111 C48.5915685,6.88250052 48.8583911,7.14370223 49.5594078,7.14699421 C51.2823158,7.15494038 53.0053423,7.14676718 54.7281318,7.15391873 C55.0903751,7.15562148 55.4557004,7.17321655 55.8139135,7.22134759 C57.2899129,7.41898 58.274347,8.24413222 58.4747899,9.65639232 C58.6070751,10.5891583 58.6152541,11.5696012 58.4719451,12.4996428 C58.2277627,14.0854698 57.0268834,14.9802077 55.1460866,15.0072246 C52.0332358,15.0517231 48.9193181,15.0192574 45.6912511,15.0192574" id="Fill-1" fill="#303030"></path>
                    <path d="M63.8701886,4.22664328 L63.8701886,7.20407036 L71.3036447,7.20407036 L71.3036447,9.39857341 L63.8942513,9.39857341 L63.8942513,12.7513999 L64.446862,12.7513999 C66.6914431,12.7513999 68.9359056,12.7565082 71.1803682,12.745497 C71.4819215,12.7439078 71.6708665,12.8186017 71.8301777,13.0779872 C72.2196841,13.7114098 72.6446325,14.3248536 73.0910358,15.0000504 L61.1193441,15.0000504 L61.1193441,14.5124965 C61.1193441,10.5010467 61.1227816,6.48971036 61.1130536,2.47848754 C61.112232,2.14486223 61.1741073,1.99729064 61.5732151,1.99886718 C65.2558642,2.01250187 68.9389875,2.006599 72.6218738,2.0079612 C72.7295037,2.00807472 72.8373706,2.02521573 73.0393545,2.04235673 C72.5519381,2.77226852 72.1086167,3.46131432 71.6289051,4.1262946 C71.5614586,4.2199458 71.316565,4.22232965 71.1536978,4.22278372 C68.9092352,4.22868658 66.6646542,4.22664328 64.4201916,4.22664328 L63.8701886,4.22664328 Z" id="Fill-3" fill="#303030"></path>
                    <path d="M17.175162,7.14404278 L24.7258493,7.14404278 L24.7258493,6.40141714 C24.7259678,5.0846245 24.7347394,3.76771834 24.719804,2.45103922 C24.7162479,2.12944668 24.7929401,1.9874374 25.1639551,1.99981071 C25.9013621,2.02444381 26.6401915,2.00707577 27.4069952,2.00707577 L27.4069952,15.0037056 L24.7358062,15.0037056 L24.7358062,9.44865693 L17.1993431,9.44865693 L17.1993431,14.9997325 L14.5164192,14.9997325 L14.5164192,2.04260647 L17.175162,2.04260647 L17.175162,7.14404278 Z" id="Fill-5" fill="#303030"></path>
                    <path d="M39.2368122,10.1077798 C38.4106224,8.30070889 37.6074284,6.54392589 36.7567019,4.68327519 C35.9084645,6.5522126 35.1101305,8.31160649 34.2949645,10.1077798 L39.2368122,10.1077798 Z M28.9945479,15.0291787 C29.0958955,14.8016915 29.1626307,14.6366383 29.2415751,14.4769204 C31.2292906,10.4571839 33.221866,6.43971764 35.2000986,2.41555393 C35.3489788,2.11280514 35.5191952,1.98328269 35.8758674,1.9990615 C36.5070669,2.02687307 37.1413483,1.98873149 37.7723108,2.01960801 C37.9343483,2.02755417 38.1678625,2.15321705 38.2343607,2.28637203 C40.3280466,6.47524834 42.4051375,10.6720708 44.4835323,14.8682122 C44.4960971,14.8934129 44.4910001,14.9266732 44.5011941,15.0227083 C43.5437859,15.0227083 42.5920674,15.0304274 41.6410601,15.0097674 C41.5535812,15.0078376 41.4439362,14.8359735 41.3897657,14.723138 C41.0598824,14.0357949 40.7321328,13.3472032 40.4280902,12.6491896 C40.3196306,12.4002476 40.17241,12.317267 39.8943266,12.3187427 C37.8072787,12.3287322 35.7202308,12.3288457 33.6333014,12.3185157 C33.3543883,12.3171535 33.2078789,12.4020639 33.0995377,12.6498707 C32.7943098,13.3473167 32.4756874,14.0402221 32.1292092,14.7196189 C32.0589179,14.8575416 31.84674,15.010562 31.6950151,15.0154432 C30.8269824,15.0435953 29.9575273,15.0291787 28.9945479,15.0291787 L28.9945479,15.0291787 Z" id="Fill-7" fill="#303030"></path>
                    <path d="M12.8437701,15.0216866 C9.81104898,15.0216866 6.88690605,15.0726556 3.96560796,15.0059078 C1.53623063,14.9502847 0.0534747898,13.4325677 0.0193366746,11.104115 C-0.00602984157,9.36413247 -0.00697812255,7.62312827 0.0196922799,5.88314572 C0.0544230707,3.61735425 1.45610089,2.12370274 3.80688943,2.04821419 C6.74288587,1.95388189 9.68409786,2.01211591 12.6231762,2.00644008 C12.6656118,2.00644008 12.7082844,2.03334352 12.8082095,2.06683092 C12.3334764,2.78198554 11.8822132,3.48533443 11.3968118,4.16643407 C11.3265205,4.26519352 11.0927693,4.29209696 10.9342878,4.29277806 C9.00631403,4.30106477 7.07834027,4.29822686 5.15048504,4.29856741 C5.00812436,4.29856741 4.86600075,4.29936202 4.7237586,4.30254049 C3.39142383,4.33239535 2.85114074,4.83527392 2.83857602,6.1079086 C2.82316645,7.68158932 2.82364059,9.25572411 2.83739067,10.8295183 C2.84877004,12.1197481 3.39332039,12.6461246 4.75256264,12.6583844 C6.72783191,12.676093 8.7034568,12.6797255 10.6783705,12.652368 C11.1367458,12.6460111 11.3927816,12.7842743 11.6136126,13.1575169 C11.9766857,13.7710742 12.398078,14.3529603 12.8437701,15.0216866" id="Fill-9" fill="#303030"></path>
                    <g id="Group-13" transform="translate(84.083680, 0.000000)">
                        <mask id="mask-2" fill="white">
                            <use xlink:href="#path-1"></use>
                        </mask>
                        <g id="Clip-12"></g>
                        <path d="M11.3413876,4.73081594 L10.8708032,4.73081594 C7.44513817,4.73081594 4.0193546,4.72355088 0.593808107,4.73970046 C0.144559994,4.74182705 -0.0115507617,4.62921858 0.000658355844,4.18355238 C0.0312404174,3.06552732 0.00919288464,1.94625358 0.011445052,0.827547415 C0.0126304032,0.199573546 0.204538766,0.00523311557 0.844628426,0.00364388308 C2.50222357,-0.000442714767 4.15981872,-0.00441579601 5.81729534,0.0109089459 C6.01904211,0.0128387282 6.27104778,0.0797000096 6.41222311,0.206043993 C8.01600332,1.63987225 9.6031886,3.09084152 11.1934558,4.53851881 C11.2349431,4.57643336 11.2631545,4.62796989 11.3413876,4.73081594" id="Fill-11" fill="#303030" mask="url(#mask-2)"></path>
                    </g>
                    <path d="M91.1468035,16.4017421 C91.136728,16.2100125 91.1241633,16.0792414 91.1241633,15.9485838 C91.1229779,12.6629591 91.1315124,9.37744797 91.1134599,6.09205033 C91.1108873,5.64808688 91.2527739,5.52253751 91.7058151,5.53343511 C92.8591618,5.56113316 94.013931,5.54115424 95.1679889,5.54331105 C95.8359344,5.54444622 95.9940602,5.68588791 95.9956012,6.30523452 C95.9997499,7.92523001 96.0063879,9.54545254 95.9856442,11.165221 C95.9829179,11.3846486 95.8889196,11.6552722 95.7361278,11.8122657 C94.3026826,13.2851436 92.8475454,14.7387238 91.3972682,16.1965041 C91.3365782,16.2576895 91.2629679,16.3072963 91.1468035,16.4017421" id="Fill-14" fill="#303030"></path>
                    <path d="M78.9934804,12.3326598 L79.5143237,12.3326598 C82.8930488,12.3326598 86.272011,12.3322058 89.6507361,12.3330004 C90.272927,12.3331139 90.2736382,12.3352707 90.2739938,12.9391791 C90.2745865,14.0279169 90.2769572,15.1165411 90.2728084,16.2051654 C90.2705563,16.7997654 90.0677427,16.9959221 89.4517157,16.9970572 C87.7623531,17.0002357 86.0727535,17.0038682 84.3835094,16.9901327 C84.1969352,16.988657 83.9633024,16.9249742 83.8325582,16.8074845 C82.2667092,15.4005597 80.7160328,13.9784236 79.162867,12.5587849 C79.1199573,12.5197352 79.0921016,12.4658148 78.9934804,12.3326598" id="Fill-16" fill="#303030"></path>
                    <path d="M83.1559834,0.675083261 C83.1672443,0.879980736 83.1819426,1.02426034 83.1820611,1.16853995 C83.183365,4.40728226 83.1741193,7.64613808 83.1930068,10.8847669 C83.1956927,11.3430334 83.0611553,11.4877671 82.5778876,11.4748262 C81.4093684,11.4431551 80.2391897,11.4677882 79.0697221,11.4624529 C78.4851069,11.459842 78.3160758,11.2933131 78.3148905,10.7235733 C78.3115823,9.10414538 78.3069486,7.48471747 78.3225953,5.86551659 C78.3243733,5.67287891 78.3926495,5.4315426 78.5239864,5.29691191 C79.9810202,3.80473611 81.4561898,2.32902022 82.9278033,0.850012352 C82.9782993,0.799270429 83.0425453,0.761242365 83.1559834,0.675083261" id="Fill-18" fill="#303030"></path>
                </g>
                <g id="Group-5" transform="translate(679.000000, 1.000000)" fill="#303030">
                    <g id="Group-51">
                        <path d="M33.4510662,13.9407509 C32.0380144,18.2154395 29.4605933,20.9230479 24.4809053,20.9230479 C19.9815132,20.9230479 16.2462877,15.9050378 17.1858713,11.0093862 C18.0159506,6.68596393 21.204705,2.53730209 26.3592847,2.53730209 C31.1966433,2.53730209 34.0681767,6.52430393 34.0910229,10.4853668 L30.7034801,10.4853668 C30.7034801,9.13182462 29.7809655,5.55067583 25.7040971,5.98718402 L23.3451594,17.0361337 C25.048647,17.8150886 27.9432892,17.6806776 29.9411517,13.9355108 L33.4510662,13.9407509" id="Fill-2"></path>
                        <polyline id="Fill-3" points="8.73644666 20.576409 0 20.576409 6.72702979 10.5844065 8.73644666 20.576409"></polyline>
                        <polyline id="Fill-4" points="11.3587724 20.576409 17.9986189 20.576409 13.8487477 0 8.73775966 7.64229939 11.3587724 20.576409"></polyline>
                        <polyline id="Fill-5" points="32.4618512 20.576409 44.8452896 20.576409 45.5879231 17.2556979 39.3199185 17.2556979 40.0625519 13.9365588 46.22184 13.9365588 46.9208818 10.6176817 40.7615937 10.6176817 41.5478187 6.9927773 47.641982 6.9927773 48.3846154 3.67390023 36.0875724 3.67390023 32.4618512 20.576409"></polyline>
                        <path d="M46.2932672,19.9225626 C46.2024076,19.8315581 46.0921155,19.7861877 45.9631788,19.7861877 C45.8347673,19.7861877 45.725263,19.8315581 45.6346659,19.9225626 C45.5438062,20.0140947 45.4981138,20.1243552 45.4981138,20.2530805 C45.4981138,20.3833884 45.543281,20.4941765 45.6333529,20.5857086 C45.72395,20.6775045 45.8339795,20.7234024 45.9631788,20.7234024 C46.0921155,20.7234024 46.2024076,20.6775045 46.2932672,20.5857086 C46.3843895,20.493649 46.4298194,20.3828609 46.4298194,20.2530805 C46.4298194,20.1238277 46.3843895,20.0138309 46.2932672,19.9225626 Z M46.2470496,20.5403383 C46.1690573,20.6194726 46.0745213,20.6590398 45.9631788,20.6590398 C45.8518363,20.6590398 45.7570376,20.6194726 45.6790453,20.5403383 C45.6015783,20.4612039 45.562976,20.3654513 45.562976,20.2530805 C45.562976,20.1417648 45.6018409,20.0468036 45.6798331,19.967933 C45.758088,19.8887986 45.8526241,19.8492314 45.9631788,19.8492314 C46.0739961,19.8492314 46.1687947,19.8887986 46.2470496,19.967933 C46.3247793,20.0468036 46.3639067,20.1417648 46.3639067,20.2530805 C46.3639067,20.3654513 46.3247793,20.4612039 46.2470496,20.5403383 L46.2470496,20.5403383 Z" id="Fill-14"></path>
                        <path d="M46.1711401,20.5012163 C46.1692996,20.4969958 46.167722,20.4880272 46.1669332,20.4743106 C46.1658814,20.4608577 46.1656185,20.4481962 46.1656185,20.4360623 L46.1656185,20.3986054 C46.1656185,20.372491 46.1561527,20.3458491 46.1374842,20.3186797 C46.1188157,20.2915102 46.0893667,20.2746282 46.0491374,20.2682974 C46.0809528,20.2632856 46.1056688,20.2548446 46.1235485,20.243502 C46.1572045,20.2218719 46.1737695,20.1878442 46.1737695,20.1419462 C46.1737695,20.0773198 46.1472129,20.0340597 46.0943625,20.0119021 C46.0646507,19.9995044 46.0181108,19.9934374 45.9544801,19.9934374 L45.775157,19.9934374 L45.775157,20.507547 L45.8653444,20.507547 L45.8653444,20.3046992 L45.9366003,20.3046992 C45.9844549,20.3046992 46.0181108,20.3102387 46.0370423,20.3213175 C46.0693835,20.3403097 46.0854227,20.3798769 46.0854227,20.4392277 L46.0854227,20.4801138 L46.0872632,20.496732 C46.0877891,20.4988422 46.088052,20.5006887 46.0885779,20.5025352 C46.0891038,20.5041179 46.0893667,20.5059643 46.0898926,20.507547 L46.1745583,20.507547 L46.1711401,20.5012163 Z M46.0325723,20.2300492 C46.0136409,20.2376988 45.9849807,20.2416555 45.9468549,20.2416555 L45.8653444,20.2416555 L45.8653444,20.0551622 L45.942385,20.0551622 C45.992343,20.0551622 46.0286283,20.0617567 46.0515038,20.0744182 C46.0741164,20.0870797 46.0854227,20.1121389 46.0854227,20.1495959 C46.0854227,20.1891631 46.0678059,20.2160688 46.0325723,20.2300492 L46.0325723,20.2300492 Z" id="Fill-15"></path>
                    </g>
                    <g id="Group-45" transform="translate(48.384615, 12.372933)">
                        <polyline id="Fill-6" points="0 8.3254863 1.82039095 0 4.28240375 0 3.66821967 2.85893936 6.65225377 2.85893936 7.26221665 0 9.72000825 0 7.8996173 8.3254863 5.4418257 8.3254863 6.15485612 5.10644415 3.17082203 5.10644415 2.4683446 8.3254863 0 8.3254863"></polyline>
                        <polyline id="Fill-7" points="38.4111284 5.61972739 40.1544826 2.39167462 42.4778994 2.39167462 39.2008439 8.33996765 36.806722 8.33996765 36.3923413 4.84191824 36.3687729 4.84191824 34.6134587 8.33996765 32.2193368 8.33996765 31.4799239 2.39167462 33.8740458 2.39167462 34.0998798 5.64675923 34.1234482 5.64675923 36.0134889 2.39167462 38.0892622 2.39167462 38.4111284 5.61972739"></polyline>
                        <path d="M20.6110467,3.12539612 C21.240005,2.52200673 21.6533305,2.24042502 22.3811351,2.24042502 C22.5566665,2.24042502 22.7469721,2.26713505 22.8785327,2.29384509 L22.3561597,4.20602628 C22.1918848,4.18349975 22.0494194,4.18382155 21.8847928,4.18382155 C20.6163232,4.18382155 20.3071206,4.86315755 19.993345,6.28908735 L19.5413252,8.34350753 L17.2316273,8.34350753 L18.532811,2.39553632 L20.6180821,2.39553632 C20.5962726,2.42803889 20.4794861,3.05846012 20.4794861,3.05846012 C20.4502895,3.16562208 20.5818501,3.19233211 20.6110467,3.12539612" id="Fill-8"></path>
                        <path d="M53.3675308,3.12539612 C53.9968409,2.52200673 54.4098146,2.24042502 55.1376192,2.24042502 C55.3131506,2.24042502 55.5034562,2.26713505 55.6350168,2.29384509 L55.1129955,4.20602628 C54.9487207,4.18349975 54.8062553,4.18382155 54.6412768,4.18382155 C53.3731591,4.18382155 53.0639565,4.86315755 52.7498291,6.28908735 L52.2981611,8.34350753 L49.9884631,8.34350753 L51.2892951,2.39553632 L53.3749179,2.39553632 C53.3531084,2.42803889 53.2359702,3.05846012 53.2359702,3.05846012 C53.2067736,3.16562208 53.3383342,3.19233211 53.3675308,3.12539612" id="Fill-9"></path>
                        <path d="M62.5067728,5.95505098 C63.0097987,3.79797415 61.7279621,2.26745686 59.4400736,2.26745686 C57.0994202,2.26745686 55.8386896,3.37254441 55.4024993,5.32495156 C54.9641984,7.32273359 56.3265895,8.56587663 58.3077377,8.56587663 C59.7468139,8.56587663 61.4155935,8.07769439 62.1648559,6.60188441 L59.8182225,6.60188441 C59.5579154,6.953942 59.1741383,7.12450007 58.7847329,7.12450007 C58.1360757,7.12450007 57.6696335,6.65884436 57.8247625,5.95505098 L62.5067728,5.95505098 Z M59.4639937,3.71494777 C60.0419459,3.71494777 60.4369795,4.07891225 60.3230072,4.62373264 L58.0938637,4.62373264 C58.222962,3.98816249 58.7330232,3.71494777 59.4639937,3.71494777 L59.4639937,3.71494777 Z" id="Fill-10"></path>
                        <path d="M28.7941877,0.0112632685 L28.1750789,2.90785413 C27.6776813,2.53230458 27.1422929,2.19891183 26.3641857,2.21789848 C24.4639438,2.26391698 23.2936171,3.55146948 23.0012992,5.10676596 C22.6073209,7.2014121 23.5584971,8.51310017 25.1674765,8.50698583 C25.9578955,8.50698583 26.4535343,8.53981021 27.0093252,7.97664678 L27.1092268,8.33674957 L29.314802,8.33674957 L31.1348411,0.0112632685 L28.7941877,0.0112632685 Z M27.6312481,5.42535555 C27.4163189,6.29069639 27.0339488,7.20269933 26.1422211,7.20269933 C25.1928037,7.20269933 25.1836577,5.83372949 25.3391385,5.32527337 C25.6462305,4.31962439 26.0704608,3.90384888 26.8897246,3.90384888 C27.7441651,3.90384888 27.8022066,4.73829617 27.6312481,5.42535555 L27.6312481,5.42535555 Z" id="Fill-11"></path>
                        <path d="M46.676231,2.17348902 C44.5842764,2.17348902 43.1944475,2.61597457 42.8666012,4.21407147 L45.2255465,4.21407147 C45.3975603,3.7033627 45.7982221,3.43400968 46.3543648,3.42049375 C46.6136166,3.4140576 47.3006163,3.55211309 47.2028253,3.98365718 C46.9618653,5.09646811 42.6463955,3.80312308 42.0533174,6.50469849 C41.7842161,7.7423708 42.9921818,8.50505498 44.1600462,8.50505498 C45.0799152,8.50505498 45.4179627,8.48928641 46.1200884,7.95283302 L46.2319501,8.33481872 L48.6946664,8.32838257 C48.519135,8.08702682 48.6116496,7.56956008 48.6946664,7.22876575 L49.2423666,4.67940537 C49.4847337,3.58139759 49.6008166,2.17348902 46.676231,2.17348902 Z M45.1541379,7.23198383 C44.6704592,7.23198383 44.4175392,6.96456165 44.4875407,6.66946402 C44.5104055,5.89133306 46.1443603,5.83662576 46.7047241,5.67668735 C46.6034154,6.64114494 46.0303879,7.23198383 45.1541379,7.23198383 L45.1541379,7.23198383 Z" id="Fill-12"></path>
                        <path d="M13.8606502,2.17348902 C11.7686956,2.17348902 10.3788667,2.61597457 10.0513722,4.21407147 L12.4099657,4.21407147 C12.5819794,3.7033627 12.9829931,3.43400968 13.5387839,3.42049375 C13.7980357,3.4140576 14.4853872,3.55211309 14.3872444,3.98365718 C14.1462844,5.09646811 9.83116642,3.80312308 9.23773656,6.50469849 C8.96863529,7.7423708 10.176601,8.50505498 11.3444653,8.50505498 C12.2643344,8.50505498 12.6023819,8.48928641 13.3045075,7.95283302 L13.4163692,8.33481872 L15.8794373,8.32838257 C15.7039059,8.08702682 15.7964205,7.56956008 15.8794373,7.22876575 L16.4267858,4.67940537 C16.6691528,3.58139759 16.7852357,2.17348902 13.8606502,2.17348902 Z M12.3385571,7.23198383 C11.8552301,7.23198383 11.6023101,6.96456165 11.6719598,6.66946402 C11.6948246,5.89133306 13.3291312,5.83662576 13.8891432,5.67668735 C13.7878345,6.64114494 13.2148071,7.23198383 12.3385571,7.23198383 L12.3385571,7.23198383 Z" id="Fill-13"></path>
                    </g>
                </g>
                <g id="Group-7-Copy-5" transform="translate(547.000000, 0.000000)" fill="#303030">
                    <path d="M46.6456585,17.8661336 C42.2507864,21.215501 35.8582452,23 30.3446784,23 C22.6203577,23 15.6951047,20.0624401 10.4212582,15.1756582 C10.0217244,14.7913046 10.3679871,14.2696818 10.8740632,14.5716739 C16.5474436,17.975949 23.5526033,20.0075324 30.7974834,20.0075324 C35.6717961,20.0075324 41.0521849,18.9642869 46.0064044,16.7954342 C46.7522009,16.4934421 47.3648194,17.317057 46.6456585,17.8661336 Z" id="Fill-1"></path>
                    <path d="M49.1567734,15.4376721 C48.587401,14.7771023 45.3609573,15.11962 43.9239697,15.2908788 C43.4901622,15.3398099 43.4088233,14.9972922 43.8155178,14.7526368 C46.3912502,13.1134451 50.5937609,13.6027561 51.0817944,14.1409981 C51.5698279,14.6792401 50.9462296,18.4958654 48.533175,20.3063159 C48.1535934,20.5754369 47.8011248,20.4286437 47.9638026,20.0616605 C48.5060621,18.8383831 49.7261458,16.1227074 49.1567734,15.4376721" id="Fill-3"></path>
                    <path d="M9.30666667,13.3339177 C9.14666667,13.4683322 8.93333333,13.4952151 8.74666667,13.3876835 C7.97333333,12.742494 7.81333333,12.4198992 7.38666667,11.8015925 C6.10666667,13.1188546 5.17333333,13.522098 3.52,13.522098 C1.54666667,13.522098 0,12.2854847 0,9.83914092 C0,7.90357221 1.04,6.61319307 2.50666667,5.96800351 C3.78666667,5.40346263 5.57333333,5.29593104 6.93333333,5.13463365 L6.93333333,4.83892176 C6.93333333,4.27438089 6.98666667,3.60230842 6.64,3.11841625 C6.34666667,2.68828987 5.81333333,2.50010958 5.33333333,2.50010958 C4.42666667,2.50010958 3.62666667,2.95711885 3.44,3.92490321 C3.38666667,4.1399664 3.25333333,4.35502959 3.04,4.35502959 L0.773333333,4.1130835 C0.586666667,4.0593177 0.373333333,3.92490321 0.426666667,3.62919132 C0.96,0.833369859 3.44,0 5.68,0 C6.82666667,0 8.32,0.295711885 9.22666667,1.18284754 C10.3733333,2.25816349 10.2666667,3.70984002 10.2666667,5.26904814 L10.2666667,8.95200526 C10.2666667,10.0542041 10.72,10.5380963 11.1466667,11.156403 C11.3066667,11.3714661 11.3333333,11.6402951 11.1466667,11.7747096 C10.64,12.1779531 9.78666667,12.9306743 9.30666667,13.3339177 Z M6.96,7.55409453 C6.96,8.46811308 6.98666667,9.24771715 6.53333333,10.081087 C6.16,10.7531595 5.57333333,11.156403 4.90666667,11.156403 C4,11.156403 3.46666667,10.4574476 3.46666667,9.43589744 C3.46666667,7.41968004 5.25333333,7.04331945 6.96,7.04331945 L6.96,7.55409453 Z M40.1333333,13.3339177 C39.9733333,13.4683322 39.76,13.4952151 39.5733333,13.3876835 C38.8,12.742494 38.64,12.4198992 38.2133333,11.8015925 C36.9333333,13.1188546 36,13.522098 34.3466667,13.522098 C32.3733333,13.522098 30.8266667,12.2854847 30.8266667,9.83914092 C30.8266667,7.90357221 31.8666667,6.61319307 33.3333333,5.96800351 C34.6133333,5.40346263 36.4,5.29593104 37.76,5.13463365 L37.76,4.83892176 C37.76,4.27438089 37.8133333,3.60230842 37.4666667,3.11841625 C37.1733333,2.68828987 36.64,2.50010958 36.16,2.50010958 C35.2533333,2.50010958 34.4533333,2.95711885 34.2666667,3.92490321 C34.2133333,4.1399664 34.08,4.35502959 33.8666667,4.35502959 L31.6,4.1130835 C31.4133333,4.0593177 31.2,3.92490321 31.2533333,3.62919132 C31.7866667,0.833369859 34.2666667,0 36.5066667,0 C37.6533333,0 39.1466667,0.295711885 40.0533333,1.18284754 C41.2,2.25816349 41.0933333,3.70984002 41.0933333,5.26904814 L41.0933333,8.95200526 C41.0933333,10.0542041 41.5466667,10.5380963 41.9733333,11.156403 C42.1333333,11.3714661 42.16,11.6402951 41.9733333,11.7747096 C41.4666667,12.1779531 40.6133333,12.9306743 40.1333333,13.3339177 Z M37.76,7.55409453 C37.76,8.46811308 37.7866667,9.24771715 37.3333333,10.081087 C36.96,10.7531595 36.3733333,11.156403 35.7066667,11.156403 C34.8,11.156403 34.2666667,10.4574476 34.2666667,9.43589744 C34.2666667,7.41968004 36.0533333,7.04331945 37.76,7.04331945 L37.76,7.55409453 Z M69.0933333,13.3608006 L66.7466667,13.3608006 C66.5066667,13.3339177 66.32,13.1457375 66.32,12.9306743 L66.32,0.752721163 C66.3466667,0.537657974 66.5333333,0.349477683 66.7733333,0.349477683 L68.96,0.349477683 C69.1733333,0.349477683 69.3333333,0.510775075 69.3866667,0.698955366 L69.3866667,2.55387537 L69.44,2.55387537 C70.1066667,0.887135656 71.0133333,0.107531595 72.64,0.107531595 C73.68,0.107531595 74.72,0.483892176 75.3866667,1.53232522 C76,2.50010958 76,4.1399664 76,5.32281394 L76,12.9844401 C75.9733333,13.1995033 75.7866667,13.3608006 75.5466667,13.3608006 L73.2,13.3608006 C72.9866667,13.3339177 72.8,13.1726204 72.7733333,12.9844401 L72.7733333,6.37124699 C72.7733333,5.02710205 72.9333333,3.09153335 71.3066667,3.09153335 C70.7466667,3.09153335 70.2133333,3.46789393 69.9466667,4.0593177 C69.6266667,4.81203886 69.5733333,5.53787713 69.5733333,6.37124699 L69.5733333,12.9306743 C69.5466667,13.1726204 69.3333333,13.3608006 69.0933333,13.3608006 Z M59.2,2.60764117 C57.4666667,2.60764117 57.3599788,5.00021915 57.3599788,6.47877858 C57.3599788,7.95733801 57.3333333,11.1295201 59.1733333,11.1295201 C60.9866667,11.1295201 61.0933333,8.57564468 61.0933333,7.01643655 C61.0933333,5.99488641 61.04,4.75827307 60.7466667,3.79048871 C60.48,2.93023596 59.9466667,2.60764117 59.2,2.60764117 Z M59.2,0.107531595 C62.6933333,0.107531595 64.5866667,3.11841625 64.5866667,6.96267076 C64.5866667,10.6725108 62.5066667,13.6296296 59.2,13.6296296 C55.7866667,13.6296296 53.92,10.618745 53.92,6.85513916 C53.8933333,3.06465045 55.7866667,0.107531595 59.2,0.107531595 Z M15.7333333,13.3608006 L13.3866667,13.3608006 C13.1733333,13.3339177 12.9866667,13.1726204 12.96,12.9575572 L12.96,0.80648696 C12.96,0.564540872 13.1733333,0.376360581 13.4133333,0.376360581 L15.6,0.376360581 C15.84,0.376360581 16,0.564540872 16.0266667,0.779604062 L16.0266667,2.36569508 L16.08,2.36569508 C16.64,0.833369859 17.7333333,0.107531595 19.1733333,0.107531595 C20.64,0.107531595 21.5733333,0.833369859 22.2133333,2.36569508 C22.7733333,0.833369859 24.08,0.107531595 25.4666667,0.107531595 C26.4533333,0.107531595 27.52,0.510775075 28.1866667,1.45167653 C28.9333333,2.47322668 28.7733333,3.95178611 28.7733333,5.26904814 L28.7733333,12.9575572 C28.7733333,13.1995033 28.56,13.3876835 28.32,13.3876835 L26,13.3876835 C25.76,13.3608006 25.5733333,13.1726204 25.5733333,12.9575572 L25.5733333,6.50566148 C25.5733333,5.99488641 25.6266667,4.70450727 25.52,4.22061509 C25.3333333,3.41412813 24.8266667,3.17218204 24.1333333,3.17218204 C23.5733333,3.17218204 22.96,3.54854263 22.72,4.1668493 C22.48,4.78515596 22.5066667,5.80670611 22.5066667,6.50566148 L22.5066667,12.9575572 C22.5066667,13.1995033 22.2933333,13.3876835 22.0533333,13.3876835 L19.7066667,13.3876835 C19.4666667,13.3608006 19.28,13.1726204 19.28,12.9575572 L19.28,6.50566148 C19.28,5.16151655 19.4933333,3.14529915 17.84,3.14529915 C16.16,3.14529915 16.2133333,5.08086785 16.2133333,6.50566148 L16.2133333,12.9575572 C16.1866667,13.1726204 16,13.3608006 15.7333333,13.3608006 Z M43.92,2.52699248 L43.92,0.779604062 C43.92,0.510775075 44.1066667,0.349477683 44.3466667,0.349477683 L52.08,0.349477683 C52.32,0.349477683 52.5333333,0.537657974 52.5333333,0.779604062 L52.5333333,2.25816349 C52.5333333,2.50010958 52.32,2.82270436 51.9466667,3.36036233 L47.9466667,9.11330265 C49.44,9.08641975 51.0133333,9.30148294 52.3466667,10.0542041 C52.64,10.2155015 52.72,10.4843305 52.7466667,10.7262766 L52.7466667,12.5811966 C52.7466667,12.8500256 52.48,13.1457375 52.1866667,12.9844401 C49.8133333,11.7209438 46.64,11.5865293 44.0266667,13.011323 C43.76,13.1457375 43.4666667,12.8769085 43.4666667,12.6080795 L43.4666667,10.8338082 C43.4666667,10.5649792 43.4666667,10.081087 43.76,9.65096063 L48.4,2.95711885 L44.3733333,2.95711885 C44.1333333,2.95711885 43.92,2.76893856 43.92,2.52699248 Z" id="Fill-5"></path>
                </g>
                <g id="Group-31" transform="translate(185.000000, 3.000000)" fill="#303030">
                    <path d="M0,1.12353482 C0.0626303452,0.231497612 0.233380444,0.0411963415 0.972418518,0.00419331655 C1.15173909,-0.00439667137 1.33171892,0.00287177995 1.51103949,0.00287177995 C8.68715852,0.00287177995 15.8639368,0.00155024335 23.0400558,0.00353254825 C26.3706717,0.00419331655 29.4665885,1.96006749 30.7264474,5.10400307 C31.3389062,6.63169938 31.6751323,8.17327183 31.5465753,9.80140493 C31.40747,11.5616917 30.7857814,13.1660371 29.672939,14.5344883 C28.7071132,15.7225497 27.582404,16.7302213 26.1122391,17.3004644 C25.1622356,17.6698339 24.1964098,17.9440527 23.1844353,17.9645365 C21.3609033,18.0015396 19.5360528,17.9638758 17.7131802,17.9995573 C16.9952386,18.0127726 16.4216765,17.729303 15.9529378,17.2621398 C14.3443269,15.6564729 12.7660422,14.019089 11.1778685,12.3916167 C11.0954601,12.3070383 11.030852,12.2046192 10.9688809,12.1240055 C11.001185,11.3502458 11.198965,11.0918854 11.8410908,11.0086286 C12.0467821,10.9815371 12.2584067,11.0059855 12.4680536,11.0059855 C15.7274686,11.0066463 18.9868836,11.0066463 22.2462986,11.0059855 C22.7229485,11.0059855 23.1930057,11.004664 23.633396,10.7515897 C24.4528646,10.2824443 24.7765646,9.51529225 24.5688955,8.44616914 C24.4357236,7.75764857 23.6057068,7.06185955 22.8271127,6.99974733 C22.5594504,6.97860274 22.289151,6.98587119 22.0201701,6.98587119 C17.1158845,6.98521043 12.2122581,6.97001276 7.30797239,6.99710426 C6.24918992,7.00305117 5.4237879,6.66077319 4.69463883,5.8956035 C3.3530309,4.48618471 1.96065944,3.12632354 0.590703046,1.74465702 C0.381715473,1.53321117 0.180639101,1.31383609 0,1.12353482" id="Fill-13"></path>
                    <path d="M80.0165291,9.06530904 C80.0956411,6.88411288 78.3202356,4.86744802 75.8730373,4.84894651 C73.3342009,4.83110576 71.6392259,6.71165235 71.639885,9.06795211 C71.6405445,11.3846058 73.3777125,13.2658131 75.9383047,13.2539754 C78.5404307,13.2413647 80.0844335,11.0145755 80.0165291,9.06530904 Z M75.9541271,15.6485436 C73.8378807,15.7126382 72.1349946,14.9402 70.7380082,13.5387104 C69.0819301,11.8762174 68.3072916,9.06464827 69.3845335,6.60328635 C70.3905746,4.30513419 72.0967571,2.93800458 74.5868078,2.47744907 C77.038621,2.02482278 79.1430006,2.66973265 80.8696203,4.38971254 C84.0136636,7.52109352 83.1968321,12.5746495 79.4251668,14.7439518 C78.3123244,15.3842363 77.1447629,15.7324612 75.9541271,15.6485436 L75.9541271,15.6485436 Z" id="Fill-14"></path>
                    <path d="M63.5078293,9.07588133 C63.6113342,6.6376463 61.3849903,4.82317654 59.4928946,4.81787874 C57.1709569,4.81260425 55.0791034,6.60526865 55.1331633,9.04812906 C55.1878824,11.4936325 56.8459384,13.2684562 59.5080577,13.2380609 C62.0363459,13.2089871 63.5493631,11.0925462 63.5078293,9.07588133 Z M66.2484014,8.39727229 C66.183134,11.6760046 64.9700831,13.5149228 62.8083473,14.7994564 C60.3848825,16.2392705 56.7074924,15.8923671 54.5800384,13.9074192 C51.2368965,10.7885928 51.766947,5.61675927 55.779904,3.27235334 C58.3774152,1.75522932 61.5168436,1.99508821 63.8638334,3.94105086 C65.4460737,5.25333671 66.3176244,6.98851427 66.2484014,8.39727229 L66.2484014,8.39727229 Z" id="Fill-15"></path>
                    <path d="M103.585976,5.17140144 C103.442256,7.85213844 103.497634,12.3169499 103.698711,13.0741903 C104.261725,13.0741903 104.853087,13.1052464 105.441153,13.0682434 C106.667389,12.9909335 107.741335,12.5984372 108.559485,11.5967124 C110.217541,9.56815372 109.483118,6.27620604 106.817702,5.37822192 C105.769468,5.02471087 104.698159,5.25796208 103.585976,5.17140144 Z M100.975939,2.7311841 C101.158556,2.71334335 101.303595,2.68625185 101.448633,2.68625185 C102.911546,2.68426955 104.374459,2.65057037 105.836054,2.69550261 C109.003171,2.79395709 111.454985,4.75643894 112.053599,7.92482295 C112.709569,11.4004642 110.644746,14.2721633 107.707712,15.2018643 C107.12492,15.3855578 106.48675,15.4430447 105.870336,15.4602247 C104.498401,15.4965669 103.125149,15.4714577 101.751896,15.4714577 C101.48753,15.4714577 101.223164,15.4714577 100.977257,15.4714577 C100.784752,14.7109134 100.779477,3.53203528 100.975939,2.7311841 L100.975939,2.7311841 Z" id="Fill-16"></path>
                    <path d="M41.1105586,12.935429 C41.8561894,12.935429 42.5115005,12.9592166 43.1654932,12.9308036 C44.5268791,12.8706737 45.6133508,12.2911799 46.3484333,11.1222808 C47.3913933,9.46375233 47.0380263,7.45303438 45.8111308,6.2207015 C44.4490856,4.85291112 42.7831185,5.00687013 41.1105586,5.0742685 C41.1105586,7.72923553 41.1105586,10.2910342 41.1105586,12.935429 Z M38.445143,2.71598643 C40.4354694,2.71598643 42.3981067,2.51246979 44.3007506,2.76488328 C46.9668255,3.11839432 48.7442088,4.78220891 49.4858839,7.40215522 C50.1695436,9.81726337 49.3118375,12.6605494 46.925951,14.3025586 C45.9957255,14.9428431 44.963973,15.3472333 43.8735457,15.4053809 C42.0908883,15.4998708 40.2996605,15.4311509 38.5222772,15.4311509 C38.3422974,14.7802941 38.279667,4.36856795 38.445143,2.71598643 L38.445143,2.71598643 Z" id="Fill-17"></path>
                    <path d="M93.6343439,7.3506153 C93.6462107,7.177494 93.6692851,6.99776502 93.6686396,6.81935758 C93.6673073,5.84802818 93.0977008,5.1284515 92.1424232,5.06039236 C91.1706639,4.99035092 90.1903342,5.04453392 89.2040711,5.04453392 C89.2040711,6.21607612 89.2040711,7.30568305 89.2040711,8.44022223 C90.0532067,8.44022223 90.8575122,8.39727229 91.6565435,8.45145529 C92.5340276,8.51224597 93.1524199,8.17261106 93.6343439,7.3506153 Z M89.1539668,10.9973956 C89.1539668,12.4312628 89.1539668,13.828127 89.1539668,15.1926135 C88.5138187,15.5117646 87.2018778,15.5269623 86.4911882,15.2349027 C86.4911882,11.0991539 86.4911882,6.94490356 86.4911882,2.73580948 C86.6949017,2.71268259 86.8926817,2.67105418 87.0904617,2.67039341 C88.7933479,2.66576804 90.4975525,2.69021646 92.2004386,2.66180343 C94.1861502,2.62876501 96.2549294,4.03686226 96.4507317,6.61451941 C96.5700589,8.17723644 95.8732139,9.44194697 94.6113773,10.3775949 C94.5408358,10.4297956 94.4544718,10.4601909 94.3793154,10.508427 C94.3298704,10.5401439 94.2889958,10.5857369 94.1966985,10.6663506 C95.0352859,12.1537401 95.8738732,13.6391472 96.7071864,15.1139821 C96.2977818,15.4892985 96.2977818,15.4892985 94.0384745,15.4370978 C93.1069305,14.0607174 92.4219523,12.4755342 91.4937046,10.9973956 C90.740822,10.9973956 89.9780503,10.9973956 89.1539668,10.9973956 L89.1539668,10.9973956 Z" id="Fill-18"></path>
                    <path d="M144.936508,10.2672466 C144.852122,11.9396512 144.989249,13.577035 144.850144,15.2461357 C143.992438,15.5527322 143.165058,15.3485548 142.311308,15.4027378 C142.247359,15.2097935 142.147809,15.0512091 142.147809,14.8919639 C142.139239,10.996074 142.139898,7.10018411 142.144513,3.2042942 C142.145172,3.06288979 142.205825,2.92148537 142.250655,2.72655872 C143.085287,2.72655872 143.906733,2.72655872 144.806632,2.72655872 C145.026827,3.52476683 144.877174,4.35931719 144.904863,5.17866989 C144.931893,5.98745029 144.911456,6.79623069 144.911456,7.60104648 C145.575337,7.75302319 148.625106,7.79068699 150.340518,7.66646255 C150.340518,6.04295483 150.340518,4.41085712 150.340518,2.73382717 C151.264151,2.6228181 152.111308,2.65519574 153,2.70673567 C153,6.88477364 153,11.0099502 153,15.2474573 C152.160753,15.5547145 151.284588,15.4126493 150.351725,15.3188202 C150.351725,13.5862858 150.351725,11.9469196 150.351725,10.2672466 C148.521601,10.2672466 146.748173,10.2672466 144.936508,10.2672466" id="Fill-19"></path>
                    <path d="M120.49551,5.82490129 C119.949637,7.2984146 119.455187,8.63448811 118.927774,10.0597653 C119.511225,10.0597653 120.013586,10.0723199 120.515288,10.0564615 C121.006442,10.0406031 121.507485,10.1284852 122.034898,9.98179468 C121.525944,8.60871814 121.03545,7.28321693 120.49551,5.82490129 Z M119.028641,2.68559109 C120.047868,2.68559109 120.970841,2.68559109 121.981497,2.68559109 C122.813492,4.78286968 123.667902,6.88939902 124.485393,9.0098045 C125.291676,11.0991539 126.152678,13.169341 126.916769,15.2937111 C126.391992,15.5487676 125.939735,15.4318116 125.504619,15.4503131 C125.060273,15.4694754 124.615268,15.4549385 124.11027,15.4549385 C123.730532,14.43273 123.362661,13.4415775 122.985561,12.4259766 C121.375631,12.4259766 119.768339,12.4259766 118.07666,12.4259766 C117.698241,13.4032529 117.307296,14.4142284 116.921625,15.4113278 C116.015792,15.4113278 115.186435,15.4179355 114.356418,15.399434 C114.281261,15.3981124 114.209401,15.2335811 114.12963,15.1377697 C115.760656,10.9927702 117.385089,6.86428983 119.028641,2.68559109 L119.028641,2.68559109 Z" id="Fill-20"></path>
                    <path d="M137.989154,4.15381825 C137.486134,4.65071602 137.020032,5.11127152 136.483389,5.64186847 C136.263853,5.52359094 136.035088,5.41786801 135.824122,5.28241051 C135.09827,4.81656886 134.332202,4.65996677 133.465266,4.79212043 C132.894341,4.87934185 132.581189,5.22888828 132.212659,5.6392254 C132.212659,5.91146194 132.212659,6.20484306 132.212659,6.50020649 C132.718976,7.26471542 133.538444,7.46823205 134.32429,7.72130631 C135.251219,8.01865205 136.204519,8.22282946 137.041788,8.77787483 C138.233083,9.56683218 138.698525,10.6504922 138.529753,12.0414095 C138.276595,14.127455 136.771489,15.4873162 134.662494,15.6525082 C133.494273,15.7436943 132.365609,15.7053697 131.268589,15.2771918 C130.372645,14.9269846 129.572295,14.4399984 128.930169,13.5591943 C129.428575,13.0424734 129.917092,12.5369857 130.370667,12.0665187 C130.795894,12.0440525 130.944889,12.3526313 131.180247,12.5171626 C132.205407,13.2354178 133.314953,13.5426751 134.537233,13.1402672 C134.834563,13.0431342 135.135188,12.8627445 135.354724,12.6407263 C136.072007,11.9165243 135.925649,11.0469532 135.101566,10.6524745 C134.465373,10.3485211 133.798195,10.1000722 133.12838,9.87805405 C132.284519,9.59788829 131.436702,9.36331554 130.701619,8.81553862 C128.758101,7.36845604 129.076527,4.52583081 130.822265,3.20759804 C132.775013,1.73342396 136.170897,2.17944257 137.805878,3.84457869 C137.865872,3.90536937 137.896857,3.99523386 137.989154,4.15381825" id="Fill-21"></path>
                </g>
            </g>
        </g>
    </g>
</svg>