<?xml version="1.0" encoding="UTF-8"?>
<svg width="94px" height="95px" viewBox="0 0 94 95" version="1.1" xmlns="http://www.w3.org/2000/svg" xmlns:xlink="http://www.w3.org/1999/xlink">
    <title>00735179-2CEB-4230-B115-26BA4355F2CC</title>
    <g id="Page-1" stroke="none" stroke-width="1" fill="none" fill-rule="evenodd">
        <g id="Resume-Builder---v3-Light" transform="translate(-248.000000, -1757.000000)">
            <g id="Group-2" transform="translate(248.000000, 1757.000000)">
                <g id="File-Copy">
                    <polygon id="Shape" points="0 0 94 0 94 94 0 94"></polygon>
                    <path d="M22.9404762,7.83333333 L53.8009447,7.83333333 C55.1901266,7.83333333 56.5343674,8.32559689 57.5950175,9.22273005 L76.2524061,25.0037713 C77.5721417,26.1200476 78.3333333,27.7608564 78.3333333,29.4893746 L78.3333333,78.6597222 L78.3333333,78.6597222 C78.3333333,85.6726775 78.2532458,86.1666667 71.0595238,86.1666667 L22.9404762,86.1666667 C15.7467542,86.1666667 15.6666667,85.6726775 15.6666667,78.6597222 L15.6666667,15.3402778 C15.6666667,8.3273225 15.7467542,7.83333333 22.9404762,7.83333333 Z" id="Combined-Shape" fill="#FFCF8C"></path>
                    <rect id="Rectangle" fill="#F56600" x="23.5" y="43.0833333" width="35.25" height="7.83333333" rx="3.91666667"></rect>
                    <rect id="Rectangle-Copy" fill="#F56600" x="23.5" y="58.75" width="19.5833333" height="7.83333333" rx="3.91666667"></rect>
                </g>
                <g id="Oval-2" transform="translate(68.000000, 77.000000) rotate(-90.000000) translate(-68.000000, -77.000000) translate(50.000000, 59.000000)" fill="#F56600">
                    <circle id="Oval" cx="18" cy="18" r="18"></circle>
                </g>
                <path d="M70.7635481,83.724585 L70.7635481,79.4300316 L70.7635481,79.4300316 L74.7483069,79.4300316 C75.3005917,79.4300316 75.7483069,78.9823163 75.7483069,78.4300316 L75.7483069,76.0440945 C75.7483069,75.4918098 75.3005917,75.0440945 74.7483069,75.0440945 L70.7635481,75.0440945 L70.7635481,75.0440945 L70.7635481,70.7495411 C70.7635481,70.1972564 70.3158328,69.7495411 69.7635481,69.7495411 C69.5121173,69.7495411 69.2699133,69.8442555 69.0851812,70.0148178 L62.0586974,76.5023397 C61.6529209,76.8769914 61.6276893,77.5096534 62.002341,77.9154299 C62.0203701,77.9349569 62.0391705,77.9537573 62.0586974,77.9717864 L69.0851812,84.4593083 C69.4909577,84.83396 70.1236198,84.8087283 70.4982714,84.4029519 C70.6688338,84.2182198 70.7635481,83.9760158 70.7635481,83.724585 Z" id="Shape" fill="#FFFFFF" transform="translate(68.742683, 77.237066) rotate(-270.000000) translate(-68.742683, -77.237066) "></path>
            </g>
        </g>
    </g>
</svg>